PathFileType        4      (X/Y/Z)      C:\Users\pc\Desktop\IMUTRC\Sujet_08\Sujet_08_velo_80.trc         
DataRate	CameraRate	NumFrames	NumMarkers	Units	OrigDataRate	OrigDataStartFrame	OrigNumFrames
60.0	60.0	4	64	mm	60.0	823	940
Frame#	Time	pHipOrigin			pRightASI			pLeftASI			pRightCSI			pLeftCSI			pRightIschialTub			pLeftIschialTub			pSacrum			pL5SpinalProcess			pL3SpinalProcess			pT12SpinalProcess			pIJ			pT4SpinalProcess			pT8SpinalProcess			pPX			pC7SpinalProcess			pTopOfHead			pRightAuricularis			pLeftAuricularis			pBackOfHead			pRightAcromion			pLeftAcromion			pRightArmLatEpicondyle			pRightArmMedEpicondyle			pLeftArmLatEpicondyle			pLeftArmMedEpicondyle			pRightUlnarStyloid			pRightRadialStyloid			pRightOlecranon			pLeftUlnarStyloid			pLeftRadialStyloid			pLeftOlecranon			pRightTopOfHand			pRightPinky			pRightBallHand			pLeftTopOfHand			pLeftPinky			pLeftBallHand			pRightGreaterTrochanter			pRightKneeLatEpicondyle			pRightKneeMedEpicondyle			pRightPatella			pLeftGreaterTrochanter			pLeftKneeLatEpicondyle			pLeftKneeMedEpicondyle			pLeftPatella			pRightTibialTub			pRightLatMalleolus			pRightMedMalleolus			pLeftTibialTub			pLeftLatMalleolus			pLeftMedMalleolus			pRightHeelFoot			pRightFirstMetatarsal			pRightFifthMetatarsal			pRightPivotFoot			pRightHeelCenter			pRightToe			pLeftHeelFoot			pLeftFirstMetatarsal			pLeftFifthMetatarsal			pLeftPivotFoot			pLeftHeelCenter			pLeftToe			
		X1	Y1	Z1	X2	Y2	Z2	X3	Y3	Z3	X4	Y4	Z4	X5	Y5	Z5	X6	Y6	Z6	X7	Y7	Z7	X8	Y8	Z8	X9	Y9	Z9	X10	Y10	Z10	X11	Y11	Z11	X12	Y12	Z12	X13	Y13	Z13	X14	Y14	Z14	X15	Y15	Z15	X16	Y16	Z16	X17	Y17	Z17	X18	Y18	Z18	X19	Y19	Z19	X20	Y20	Z20	X21	Y21	Z21	X22	Y22	Z22	X23	Y23	Z23	X24	Y24	Z24	X25	Y25	Z25	X26	Y26	Z26	X27	Y27	Z27	X28	Y28	Z28	X29	Y29	Z29	X30	Y30	Z30	X31	Y31	Z31	X32	Y32	Z32	X33	Y33	Z33	X34	Y34	Z34	X35	Y35	Z35	X36	Y36	Z36	X37	Y37	Z37	X38	Y38	Z38	X39	Y39	Z39	X40	Y40	Z40	X41	Y41	Z41	X42	Y42	Z42	X43	Y43	Z43	X44	Y44	Z44	X45	Y45	Z45	X46	Y46	Z46	X47	Y47	Z47	X48	Y48	Z48	X49	Y49	Z49	X50	Y50	Z50	X51	Y51	Z51	X52	Y52	Z52	X53	Y53	Z53	X54	Y54	Z54	X55	Y55	Z55	X56	Y56	Z56	X57	Y57	Z57	X58	Y58	Z58	X59	Y59	Z59	X60	Y60	Z60	X61	Y61	Z61	X62	Y62	Z62	X63	Y63	Z63	X64	Y64	Z64	
823	13.7	0.0	1249.97582	7.653894434872941E-14	99.921483872862	1317.51588	128.77143442661614	79.65047398767888	1331.89642	-134.38921610853663	75.0095941533422	1393.45805	111.45362190966748	58.22233764041201	1405.4149	-105.33293920810358	-63.56274403643964	1208.93473	57.400945977321356	-71.90444148191814	1214.91316	-51.05422331212374	-56.66618190615591	1287.94691	6.448621130082686	6.432113677607409	1371.96803	6.6627374193597655	74.27096372350017	1465.19916	6.003353045967029	136.71053389549957	1550.02819	5.242890719638164	383.62644060752393	1586.2219	-19.800153066287113	275.1569292448829	1679.61461	-1.1350975387968385	207.7206771755852	1626.77825	2.8150815315409403	294.58880070473003	1510.27973	-14.992314163681435	319.22615356758547	1712.73833	-2.1233935099648793	552.3674980978453	1794.17419	-58.76269534163345	496.03906371265435	1736.00571	24.95749985100644	450.784699101171	1755.55678	-100.33899661034965	450.04399872411227	1790.61945	-22.28492610278531	346.0174505792546	1646.4909	144.17103467000317	304.1953538255105	1664.74934	-163.4389319854426	461.3985456232006	1385.70225	131.09455875053658	431.45483562659217	1373.90698	78.54835710983744	412.3901261092958	1397.65911	-168.2024557938902	393.9664664597627	1388.28752	-110.0483757632108	548.7530042617002	1151.41258	134.5769724507669	591.5690292103756	1170.47891	112.7100170574751	424.6608437785746	1373.26066	117.56393445427221	489.53683359321815	1163.69259	-198.8074585607878	535.8640175765834	1185.66734	-206.76002606329493	379.5758083018838	1385.05594	-136.8884330781696	730.3161253040372	1067.22987	188.42384119650748	638.7035668657657	1073.53146	171.6658350897899	591.9159546782765	1120.71255	132.4063669596022	629.9194982232132	1074.50093	-324.632550599329	558.1375911950227	1081.61041	-265.4803043169678	531.6727390499741	1133.96204	-215.3391652564357	40.64293987060365	1225.90054	155.17530247471123	340.17486058302575	973.35242	91.81005898725856	331.7659398851388	973.35242	15.359311825657532	360.5560373638945	1008.41508	48.16505588757054	2.404799169908017	1226.54685	-159.97370125268992	297.85853568482173	961.71873	-167.70151520108055	315.0457603951857	969.79768	-93.16566339561011	332.6355270893847	999.36666	-137.2546013352673	355.3302163937294	923.74764	57.91214967175989	75.43169066894849	681.54059	151.67291817514317	70.0060535782628	672.169	92.27936378644311	356.0423877468404	935.86607	-139.76119217993187	272.4200695379648	564.39575	-170.06354636635214	284.0317577133495	561.97207	-110.75244543114921	-12.925621091858602	659.88899	132.79507713738565	71.22410691205528	539.02784	74.73991091293142	81.79420063692464	533.37257	148.36371405670263	88.53273505419173	519.15361	107.40325301428629	10.6776130554518	631.61265	127.2893606225495	133.98212705563125	454.68355	95.97208341003383	222.25967359991546	496.0478	-129.89176616420622	374.5133954815069	458.72303	-108.23176183522719	366.1997703205386	454.03724	-182.28235479310646	390.92365041306687	450.96723	-146.13892468855235	258.6418915520305	489.0999	-133.53355367735188	467.3502057371549	429.47721	-153.51351925339537	
824	13.717	0.0	1249.97582	7.653894434872941E-14	97.8883783936863	1317.19272	130.44027361771444	82.0662680321797	1331.89642	-132.99490734622665	73.28806711220986	1393.29647	112.75113637785273	60.26679930155534	1405.4149	-104.25021531171306	-64.59278774324055	1209.09631	56.11478126322762	-71.09347077315506	1215.07474	-52.27207442372494	-56.74583760229554	1288.10848	5.5380712255895235	6.452029516753421	1371.96803	6.890376502452081	74.51422855905099	1465.03759	7.473042738617981	137.15724597662967	1549.86661	7.726990706187091	384.4558348261031	1585.57558	-14.252897465885427	275.8027920570288	1678.9683	3.6253868507991633	208.3907382531201	1626.29351	6.541232127648513	295.07105437746475	1509.79499	-10.79096956224327	319.93176266460097	1712.09201	3.3199940405875363	553.3163861187322	1794.01261	-51.849619330998486	496.84425966584433	1735.52098	31.53908924489655	451.8175341374533	1755.23363	-93.77732305560556	450.84920110517845	1790.13471	-15.703344369339678	345.33731699901466	1645.35985	149.50628460021545	306.9297924033348	1664.58776	-158.4024184098522	461.22209440036795	1384.89436	134.32131584335602	431.36233018658663	1373.58382	81.42369765844543	413.5595730296743	1397.17437	-165.32282392602636	394.8883725462235	1387.31804	-107.37646837186156	548.4769674152615	1150.60468	136.66554178856924	591.2929923639367	1169.67101	114.79858639527744	424.4843784674214	1372.77593	120.79069277966002	489.11711110695865	1162.72311	-197.05038350017486	535.3404334683507	1184.37471	-204.87917354156278	380.4977143883446	1384.40962	-134.21652568682035	730.0002567793063	1066.09882	190.05713236812528	638.283844379506	1072.56198	173.4229101504029	591.5161403707186	1119.74308	134.39107467543135	629.1284433535961	1073.53146	-323.18706040463553	557.4703137865247	1080.64094	-263.9309525003011	531.1292391025953	1132.83098	-213.6859518177959	39.50475854346258	1226.87001	155.27488043787295	352.11589174464115	990.96454	90.65067048126447	344.1622415524943	991.2877	14.16008521349531	370.94342538958733	1027.48142	47.60034233346264	1.41029705471162	1224.76948	-159.54262135189438	278.06968034268914	940.22871	-164.47924918457153	296.14753911840023	948.30766	-90.25069215833301	315.49866453202367	975.77611	-135.1818663999909	366.7320300342091	941.68292	57.14400172782487	84.50872980347901	702.86903	153.17258088875633	78.85544720182489	693.33586	93.79894999964665	337.37180555314717	914.86079	-136.86613678180083	258.1585475292117	542.421	-167.89830599107015	269.43874265997545	539.99731	-108.44350532772594	-3.6849728179169006	679.9248	134.85387963915653	81.91452137905749	560.03312	76.32780306818307	92.71224652657475	554.53943	149.9316839449322	99.57455840496098	540.48205	109.07508452448899	20.24975437401455	651.97162	129.2044633961791	145.9145921321921	476.65831	97.33662656888069	207.68656672524293	474.23462	-127.35519340556671	359.96021853430096	436.58669	-105.4675512260637	351.54272409091504	431.57774	-179.39437315069992	376.24668191642115	428.50774	-143.47857446879374	244.06879110523397	467.12514	-130.99698857915678	452.6931530796552	407.01772	-150.62552995054435	
825	13.733	0.0	1249.97582	7.653894434872941E-14	95.6475573310087	1316.86956	132.3566741589272	84.72960291059833	1331.89642	-131.39287410740204	71.35883091545172	1393.13489	114.29620453570797	62.45494660251941	1405.4149	-102.83599713813315	-65.72670073245904	1209.09631	54.952387582376936	-70.1786384424188	1215.23632	-53.613702996445305	-56.72163933690644	1288.27006	4.503737432101095	6.491861195045449	1371.80645	7.345654668636713	74.7774156616239	1464.87601	9.170363853916808	137.64378973605184	1549.54345	10.666368858920636	385.07750456816757	1584.92927	-8.45810103156599	276.5923545973159	1678.48356	8.717364285016192	208.85309017502925	1625.97036	10.514936413426042	295.6770919391946	1509.31026	-6.485770999276319	320.78107272232614	1711.44569	9.09488872408149	554.201244195938	1794.01261	-44.35748769305966	497.5655086036388	1735.03624	38.47208109467757	453.09792286340564	1755.07205	-87.00794034523571	451.5704436150969	1789.64997	-8.770344859114235	344.44947426314894	1644.06721	155.0890882200977	309.8079242814242	1664.2646	-153.03440412919633	460.83791350571283	1384.08646	137.7956355188583	431.4135116189701	1373.26066	84.63054657256336	414.74894221707507	1396.68963	-162.2155606355146	395.4787779276188	1386.18699	-104.56086768024718	547.7655759022284	1149.79679	139.02158831563202	590.7053783120228	1168.86312	117.25849454431336	424.30792724458865	1372.12961	124.01744987247949	488.13824883254125	1161.43048	-195.12969930015063	534.6091184557272	1182.9205	-202.75077252546842	381.3356746919782	1383.92488	-131.1932017512597	729.3528952099545	1064.96776	191.83412326788425	637.6763068280018	1071.59251	175.6551727884704	590.9086169075348	1118.93518	136.62333608093053	627.8821103177944	1072.23882	-321.70173853165005	556.2439030177452	1079.3483	-262.2179992046677	530.150376828178	1131.37677	-211.76526761777177	38.24278566688184	1227.35475	155.2705980116299	362.91872625822657	1008.89982	89.59084708267991	355.64799331535676	1010.19245	13.04051429747273	380.3363189605282	1047.03249	47.4667151080264	0.7473020724567903	1223.47685	-159.25524241180844	257.12272140639334	920.67764	-161.3850366275487	276.2149904760024	928.43344	-87.35992684688946	297.13966720425	953.96293	-132.65814338521727	377.55477395906445	960.4261	56.311825072777054	94.91175124207476	722.74326	154.0974792943215	88.90705852408527	713.21009	94.63989496194024	317.3752269670683	894.98656	-133.39631584305346	240.44262934454682	522.38519	-165.8896009994748	251.247636897856	519.79992	-106.62261540137533	7.089381004036369	697.6985	136.09036291064118	95.17298161543576	580.06892	77.11756659809313	106.65361758435388	574.73681	150.66170761784863	113.61979108471328	560.84101	109.68133073628628	31.707025445244753	670.39163	130.38119915022568	161.42951327202698	498.14833	97.69959385680662	189.16396791850246	454.68355	-125.3906037510748	341.0420814183695	415.74299	-102.78021907187896	332.7284485969567	410.57246	-176.83081845763428	357.224690838961	407.50246	-140.66745842561366	225.44231658819984	447.25091	-128.9086202309774	433.4634375256804	385.20454	-147.56687307344652	
826	13.75	0.0	1249.97582	7.653894434872941E-14	93.49066796283772	1316.70798	133.9216593884968	86.91775787200682	1331.73484	-129.97864950594607	69.86494295741167	1392.81173	115.57380316474722	64.37563080254357	1405.4149	-101.85713486371579	-66.50919594489773	1209.09631	53.87395377267394	-69.36766773365571	1215.3979	-54.831554108046504	-56.677531660247425	1288.27006	3.697050382149418	6.635546834866195	1371.80645	7.67714894582608	74.8969106965	1464.71443	10.536198352470706	137.9667243560628	1549.22029	13.046607223496418	385.63942802536235	1584.44453	-3.3462077582029393	277.0945305370726	1677.99882	13.14634030910226	209.27559633032587	1625.48562	14.03336376558731	296.13943743322767	1508.82552	-2.5120590530543367	321.21921871840175	1710.96096	14.102920375471362	554.9224867058565	1794.01261	-37.42448818283419	497.89550931892995	1734.5515	44.865848995446804	453.9870569389784	1754.91047	-80.77777392343322	452.1280834134802	1789.32681	-2.3964927974909114	343.50187634940073	1643.09774	159.98896816282695	312.39866955898333	1664.10302	-148.32939125867142	460.2901298995227	1383.27857	140.71080774575833	431.1972222899694	1373.09908	87.40203315964266	415.79462576465494	1396.36647	-159.43979162219225	396.15312909184127	1385.3791	-102.09668353284422	547.0342608896049	1148.98889	141.14998933172637	589.9740632993994	1168.2168	119.38689556040775	423.9877762936147	1371.64487	126.91271392067796	487.2632405196525	1160.46101	-193.33279898912176	533.9617568863753	1181.62787	-200.97378162570945	382.1337956568754	1383.44015	-128.6251624097597	728.8093876021312	1063.83671	193.487330278648	637.0289452586499	1070.62303	177.4321636882294	590.1573860557653	1118.12728	138.52409801393267	626.6357772819927	1071.10777	-320.2164166586644	555.2252014045912	1078.21725	-260.7525995987043	529.1515910541702	1130.24572	-210.072228928716	37.33223576238867	1228.00106	155.3502537077695	372.8949655431587	1027.15826	88.25928335222014	365.97563505617984	1029.25879	11.792897582408392	388.53128368689	1066.74513	46.749748596474895	-0.039469138348877664	1222.66895	-159.07171100537514	237.06639653544468	904.35815	-158.59811884975773	256.61394377123844	911.62921	-84.61284074739055	279.00830253169244	935.38134	-130.1543285491453	387.6348672055253	979.33085	54.85647745332204	106.78875122744064	740.03222	153.51713232731063	100.78405208157507	730.33747	94.05955565537386	298.14550498521737	877.85918	-130.3376513055112	221.1972816102374	505.25781	-164.3205419937295	231.33928775341565	502.51096	-104.76616979509966	19.669206417380778	712.24062	135.67790108140855	111.3750960029146	597.51947	76.15882115244474	123.20714851604419	592.51051	149.78690795502735	130.4009610994959	578.93787	108.78661523431897	45.19740076308234	685.74165	129.8890816248534	180.13563705732466	517.86098	96.52178307356485	168.6765631467583	438.36406	-123.59818808848027	320.01545269761357	397.48455	-100.59655518678095	311.9294589592931	392.15245	-174.66707041168226	336.1980685460811	388.92086	-138.48380220096004	204.85105662235864	430.44669	-126.99243476770815	412.12523036688106	365.4919	-145.0118844654354	
